<svg width="30" height="30" viewBox="0 0 30 30" fill="none" xmlns="http://www.w3.org/2000/svg">
<g clip-path="url(#clip0_2626_2306)">
<path d="M22.5 7.5C22.5 3.36375 19.1362 0 15 0C10.8637 0 7.5 3.36375 7.5 7.5C7.5 11.21 10.2075 14.2988 13.75 14.895V28.75C13.75 29.44 14.31 30 15 30C15.69 30 16.25 29.44 16.25 28.75V14.895C19.7925 14.2988 22.5 11.21 22.5 7.5ZM15 12.5C12.2425 12.5 10 10.2575 10 7.5C10 4.7425 12.2425 2.5 15 2.5C17.7575 2.5 20 4.7425 20 7.5C20 10.2575 17.7575 12.5 15 12.5Z" fill="#663A80"/>
</g>
<defs>
<clipPath id="clip0_2626_2306">
<rect width="30" height="30" fill="white"/>
</clipPath>
</defs>
</svg>
