<svg width="55" height="55" viewBox="0 0 55 55" fill="none" xmlns="http://www.w3.org/2000/svg">
<path fill-rule="evenodd" clip-rule="evenodd" d="M27.5 55C42.6878 55 55 42.6878 55 27.5C55 12.3122 42.6878 0 27.5 0C12.3122 0 0 12.3122 0 27.5C0 42.6878 12.3122 55 27.5 55Z" fill="#663A80"/>
<rect x="8.25" y="8.25" width="38.5" height="38.5" fill="#FF0000" fill-opacity="0.01"/>
<path fill-rule="evenodd" clip-rule="evenodd" d="M33.5194 40.6418C31.6759 41.397 29.6398 41.819 27.5001 41.819C18.9931 41.819 12.1001 35.1704 12.1001 26.9595C12.1001 18.7561 18.9931 12.1 27.5001 12.1C36.0071 12.1 42.9001 18.7561 42.8853 26.9743C42.8853 29.9285 41.9894 32.6827 40.442 35.0001C40.3754 35.0815 40.3162 35.1778 40.2569 35.274C40.0792 35.5924 39.9682 35.9626 39.9682 36.355L41.6044 42.9L35.3852 40.6122C35.1112 40.4938 34.8077 40.4345 34.4893 40.4345C34.2006 40.4345 33.9192 40.4864 33.6601 40.5826C33.6601 40.59 33.6527 40.59 33.6453 40.59C33.6009 40.6048 33.5638 40.6196 33.5194 40.6418ZM36.977 27.5C36.977 26.1895 35.9183 25.1308 34.6078 25.1308C33.2973 25.1308 32.2386 26.1895 32.2386 27.5C32.2386 28.8105 33.2973 29.8692 34.6078 29.8692C35.9183 29.8692 36.977 28.8105 36.977 27.5ZM27.5001 25.1308C28.8106 25.1308 29.8693 26.1895 29.8693 27.5C29.8693 28.8105 28.8106 29.8692 27.5001 29.8692C26.1896 29.8692 25.1309 28.8105 25.1309 27.5C25.1309 26.1895 26.1896 25.1308 27.5001 25.1308ZM22.7616 27.5C22.7616 26.1895 21.7029 25.1308 20.3924 25.1308C19.0819 25.1308 18.0232 26.1895 18.0232 27.5C18.0232 28.8105 19.0819 29.8692 20.3924 29.8692C21.7029 29.8692 22.7616 28.8105 22.7616 27.5Z" fill="black"/>
<mask id="mask0_2566_44656" style="mask-type:luminance" maskUnits="userSpaceOnUse" x="12" y="12" width="31" height="31">
<path fill-rule="evenodd" clip-rule="evenodd" d="M33.5194 40.6418C31.6759 41.397 29.6398 41.819 27.5001 41.819C18.9931 41.819 12.1001 35.1704 12.1001 26.9595C12.1001 18.7561 18.9931 12.1 27.5001 12.1C36.0071 12.1 42.9001 18.7561 42.8853 26.9743C42.8853 29.9285 41.9894 32.6827 40.442 35.0001C40.3754 35.0815 40.3162 35.1778 40.2569 35.274C40.0792 35.5924 39.9682 35.9626 39.9682 36.355L41.6044 42.9L35.3852 40.6122C35.1112 40.4938 34.8077 40.4345 34.4893 40.4345C34.2006 40.4345 33.9192 40.4864 33.6601 40.5826C33.6601 40.59 33.6527 40.59 33.6453 40.59C33.6009 40.6048 33.5638 40.6196 33.5194 40.6418ZM36.977 27.5C36.977 26.1895 35.9183 25.1308 34.6078 25.1308C33.2973 25.1308 32.2386 26.1895 32.2386 27.5C32.2386 28.8105 33.2973 29.8692 34.6078 29.8692C35.9183 29.8692 36.977 28.8105 36.977 27.5ZM27.5001 25.1308C28.8106 25.1308 29.8693 26.1895 29.8693 27.5C29.8693 28.8105 28.8106 29.8692 27.5001 29.8692C26.1896 29.8692 25.1309 28.8105 25.1309 27.5C25.1309 26.1895 26.1896 25.1308 27.5001 25.1308ZM22.7616 27.5C22.7616 26.1895 21.7029 25.1308 20.3924 25.1308C19.0819 25.1308 18.0232 26.1895 18.0232 27.5C18.0232 28.8105 19.0819 29.8692 20.3924 29.8692C21.7029 29.8692 22.7616 28.8105 22.7616 27.5Z" fill="white"/>
</mask>
<g mask="url(#mask0_2566_44656)">
<rect x="8.25" y="8.25" width="38.5" height="38.5" fill="white"/>
</g>
</svg>
