<svg width="140" height="140" viewBox="0 0 140 140" fill="none" xmlns="http://www.w3.org/2000/svg">
<path opacity="0.35" d="M70 140C108.66 140 140 108.66 140 70C140 31.3401 108.66 0 70 0C31.3401 0 0 31.3401 0 70C0 108.66 31.3401 140 70 140Z" fill="#663A80"/>
<g filter="url(#filter0_d_2566_43333)">
<path d="M71 90C82.0457 90 91 81.0457 91 70C91 58.9543 82.0457 50 71 50C59.9543 50 51 58.9543 51 70C51 81.0457 59.9543 90 71 90Z" fill="#663A80" stroke="white" stroke-width="2" stroke-miterlimit="10"/>
</g>
<path d="M80.703 63.8492L71.638 80.0002C71.5616 80.1608 71.4389 80.2949 71.2856 80.3851C71.1323 80.4752 70.9555 80.5174 70.778 80.5062C70.702 80.503 70.6263 80.4933 70.552 80.4772C70.3407 80.4353 70.1509 80.3202 70.016 80.1522C69.8843 79.9913 69.8135 79.7891 69.816 79.5812L70.016 71.0272L61.009 68.6352C60.7924 68.6367 60.5814 68.5664 60.409 68.4352C60.2368 68.3115 60.1159 68.129 60.069 67.9222C60.0173 67.7177 60.039 67.5016 60.1304 67.3115C60.2218 67.1214 60.377 66.9695 60.569 66.8822L79.405 62.6062C79.5417 62.5376 79.693 62.5032 79.846 62.5062C79.9719 62.5028 80.0972 62.5253 80.214 62.5725C80.3308 62.6196 80.4367 62.6903 80.525 62.7802C80.6731 62.9106 80.7719 63.088 80.8049 63.2826C80.8378 63.4772 80.8029 63.6773 80.706 63.8492H80.703Z" fill="white"/>
<defs>
<filter id="filter0_d_2566_43333" x="40" y="41" width="62" height="62" filterUnits="userSpaceOnUse" color-interpolation-filters="sRGB">
<feFlood flood-opacity="0" result="BackgroundImageFix"/>
<feColorMatrix in="SourceAlpha" type="matrix" values="0 0 0 0 0 0 0 0 0 0 0 0 0 0 0 0 0 0 127 0" result="hardAlpha"/>
<feOffset dy="2"/>
<feGaussianBlur stdDeviation="5"/>
<feColorMatrix type="matrix" values="0 0 0 0 0 0 0 0 0 0 0 0 0 0 0 0 0 0 0.25 0"/>
<feBlend mode="normal" in2="BackgroundImageFix" result="effect1_dropShadow_2566_43333"/>
<feBlend mode="normal" in="SourceGraphic" in2="effect1_dropShadow_2566_43333" result="shape"/>
</filter>
</defs>
</svg>
