<svg width="12" height="19" viewBox="0 0 12 19" fill="none" xmlns="http://www.w3.org/2000/svg">
<path d="M7.51169 9.65207L1.37585 3.14754C1.12449 2.9 0.983521 2.56595 0.983521 2.21785C0.983521 1.86976 1.12449 1.53571 1.37585 1.28817C1.49949 1.16604 1.64683 1.06906 1.80931 1.00287C1.97179 0.936676 2.14616 0.902588 2.32229 0.902588C2.49841 0.902588 2.67279 0.936676 2.83526 1.00287C2.99774 1.06906 3.14508 1.16604 3.26872 1.28817L10.7504 8.72567C11.0009 8.97362 11.1413 9.30752 11.1413 9.65535C11.1413 10.0032 11.0009 10.3371 10.7504 10.585L3.26872 18.0225C3.14508 18.1447 2.99774 18.2416 2.83526 18.3078C2.67279 18.374 2.49841 18.4081 2.32229 18.4081C2.14616 18.4081 1.97179 18.374 1.80931 18.3078C1.64683 18.2416 1.49949 18.1447 1.37585 18.0225C1.12449 17.775 0.983521 17.4409 0.983521 17.0929C0.983521 16.7448 1.12449 16.4107 1.37585 16.1632L7.51169 9.65207Z" fill="#663A80"/>
</svg>
