<svg width="19" height="20" viewBox="0 0 19 20" fill="none" xmlns="http://www.w3.org/2000/svg">
<rect x="2.29167" y="5" width="13.75" height="12.5" rx="2" stroke="#2D4356"/>
<path d="M2.29167 8.33333C2.29167 7.08718 2.29167 6.4641 2.55962 6C2.73516 5.69596 2.98763 5.44349 3.29167 5.26795C3.75577 5 4.37885 5 5.62501 5H12.7083C13.9545 5 14.5776 5 15.0417 5.26795C15.3457 5.44349 15.5982 5.69596 15.7737 6C16.0417 6.4641 16.0417 7.08718 16.0417 8.33333H2.29167Z" fill="#2D4356"/>
<path d="M5.34723 2.5L5.34723 5" stroke="#2D4356" stroke-linecap="round"/>
<path d="M12.9861 2.5L12.9861 5" stroke="#2D4356" stroke-linecap="round"/>
<rect x="5.34723" y="10" width="3.05556" height="1.66667" rx="0.5" fill="#2D4356"/>
<rect x="5.34723" y="13.3333" width="3.05556" height="1.66667" rx="0.5" fill="#2D4356"/>
<rect x="9.93056" y="10" width="3.05556" height="1.66667" rx="0.5" fill="#2D4356"/>
<rect x="9.93056" y="13.3333" width="3.05556" height="1.66667" rx="0.5" fill="#2D4356"/>
</svg>
