<svg width="52" height="36" viewBox="0 0 52 36" fill="none" xmlns="http://www.w3.org/2000/svg">
<path d="M3.00843 17.2447L9.22367 15.5114L4.93986 13.0476L2.77319 15.14L3.00843 17.2447Z" fill="#2D3134"/>
<path d="M26.8294 29.601L33.0446 27.8676L28.7485 25.4038L26.5818 27.4962L26.8294 29.601Z" fill="#2D3134"/>
<path opacity="0.29" d="M3.00843 17.2447L9.22367 15.5114L4.93986 13.0476L2.77319 15.14L3.00843 17.2447Z" fill="black"/>
<path opacity="0.29" d="M26.8294 29.601L33.0446 27.8676L28.7485 25.4038L26.5818 27.4962L26.8294 29.601Z" fill="black"/>
<path d="M31.3733 27.137C30.5438 26.7161 29.7886 26.6666 29.2314 26.9266L28.0552 27.558C27.461 27.8304 27.0771 28.437 27.0771 29.3285C27.0771 31.0494 28.4762 33.1542 30.1971 34.0085C31.0514 34.4294 31.8191 34.479 32.3886 34.2066C32.3886 34.2066 33.5524 33.5875 33.6762 33.5132C34.1838 33.2161 34.4933 32.6342 34.4933 31.8294C34.4933 30.0961 33.0943 28.0037 31.3733 27.137Z" fill="#2D3134"/>
<path opacity="0.29" d="M32.4258 34.1941C32.6486 34.0827 33.5648 33.5874 33.6763 33.5131C34.1839 33.216 34.4934 32.6341 34.4934 31.8293C34.4934 31.136 34.2705 30.3808 33.8867 29.675L32.7105 30.3065C33.0944 31.0122 33.3172 31.7674 33.3172 32.4608C33.3296 33.3027 32.9829 33.9093 32.4258 34.1941Z" fill="black"/>
<path d="M33.3296 32.4608C33.3296 34.1817 31.9306 34.8875 30.2096 34.0208C28.4886 33.1541 27.0896 31.0617 27.0896 29.3408C27.0896 27.6198 28.4886 26.9141 30.2096 27.7808C31.9306 28.6351 33.3296 30.7398 33.3296 32.4608Z" fill="#2D3134"/>
<path d="M32.6361 32.1141C32.6361 33.4636 31.5466 34.0084 30.1971 33.3398C28.8476 32.6712 27.7581 31.0246 27.7581 29.675C27.7581 28.3255 28.8476 27.7807 30.1971 28.4493C31.5466 29.1303 32.6361 30.7646 32.6361 32.1141Z" fill="#E5E5E5"/>
<path d="M31.8069 33.2036C32.1784 32.9931 32.4012 32.5846 32.4012 32.0027C32.4012 31.9532 32.4012 31.9036 32.4012 31.8665L31.0393 31.656L31.8069 33.2036Z" fill="#2D3134"/>
<path d="M30.7172 30.5169L32.1411 30.8265C31.8439 30.1207 31.3115 29.4274 30.6677 28.9817L30.7172 30.5169Z" fill="#2D3134"/>
<path d="M29.6897 30.0093L29.7392 28.5236C29.0954 28.3379 28.563 28.4865 28.2659 28.8951L29.6897 30.0093Z" fill="#2D3134"/>
<path d="M28.0059 29.6626C28.0059 29.7121 28.0059 29.7493 28.0059 29.7988C28.0059 30.3807 28.2287 31.0121 28.6001 31.594L29.3801 30.8264L28.0059 29.6626Z" fill="#2D3134"/>
<path d="M30.1974 31.8293L29.3555 32.5103C29.6155 32.7455 29.9002 32.9436 30.1974 33.0922C30.4945 33.2408 30.7793 33.3274 31.0393 33.3398L30.1974 31.8293Z" fill="#2D3134"/>
<path opacity="0.11" d="M33.3296 32.4608C33.3296 34.1817 31.9306 34.8875 30.2096 34.0208C28.4886 33.1541 27.0896 31.0617 27.0896 29.3408C27.0896 27.6198 28.4886 26.9141 30.2096 27.7808C31.9306 28.6351 33.3296 30.7398 33.3296 32.4608Z" fill="black"/>
<path d="M7.57695 15.1646C6.74743 14.7437 5.99219 14.6942 5.43505 14.9542L4.25886 15.5856C3.66457 15.858 3.28076 16.4646 3.28076 17.3561C3.28076 19.077 4.67981 21.1818 6.40076 22.0361C7.25505 22.457 8.02267 22.5065 8.59219 22.2342C8.59219 22.2342 9.756 21.6151 9.87981 21.5408C10.3874 21.2437 10.697 20.6618 10.697 19.857C10.7093 18.1237 9.31029 16.0313 7.57695 15.1646Z" fill="#2D3134"/>
<path opacity="0.29" d="M8.6416 22.2217C8.86446 22.1103 9.78065 21.615 9.89208 21.5407C10.3997 21.2436 10.7092 20.6617 10.7092 19.8569C10.7092 19.1636 10.4864 18.4084 10.1026 17.7026L8.92636 18.3341C9.31017 19.0398 9.53303 19.795 9.53303 20.4884C9.53303 21.3303 9.18636 21.9245 8.6416 22.2217Z" fill="black"/>
<path d="M9.53321 20.4762C9.53321 22.1971 8.13417 22.9028 6.41321 22.0362C4.69226 21.1695 3.29321 19.0771 3.29321 17.3562C3.29321 15.6352 4.69226 14.9295 6.41321 15.7962C8.13417 16.6628 9.53321 18.7552 9.53321 20.4762Z" fill="#2D3134"/>
<path d="M8.85222 20.1419C8.85222 21.4914 7.76269 22.0362 6.41317 21.3676C5.06365 20.6991 3.97412 19.0524 3.97412 17.7029C3.97412 16.3533 5.06365 15.8086 6.41317 16.4771C7.76269 17.1457 8.85222 18.7924 8.85222 20.1419Z" fill="#E5E5E5"/>
<path d="M8.02275 21.219C8.39418 21.0085 8.61703 20.6 8.61703 20.0181C8.61703 19.9685 8.61703 19.919 8.61703 19.8819L7.25513 19.6714L8.02275 21.219Z" fill="#2D3134"/>
<path d="M6.92062 18.5323L8.34443 18.8418C8.04728 18.1361 7.5149 17.4428 6.87109 16.9971L6.92062 18.5323Z" fill="#2D3134"/>
<path d="M5.9055 18.0247L5.95502 16.539C5.31121 16.3533 4.77883 16.5019 4.48169 16.9104L5.9055 18.0247Z" fill="#2D3134"/>
<path d="M4.22168 17.678C4.22168 17.7275 4.22168 17.7646 4.22168 17.8142C4.22168 18.3961 4.44454 19.0275 4.81597 19.6094L5.59596 18.8418L4.22168 17.678Z" fill="#2D3134"/>
<path d="M6.41319 19.8572L5.57129 20.5381C5.83129 20.7734 6.11605 20.9715 6.41319 21.12C6.71034 21.2686 6.9951 21.3553 7.2551 21.3677L6.41319 19.8572Z" fill="#2D3134"/>
<path opacity="0.11" d="M9.53321 20.4762C9.53321 22.1971 8.13417 22.9028 6.41321 22.0362C4.69226 21.1695 3.29321 19.0771 3.29321 17.3562C3.29321 15.6352 4.69226 14.9295 6.41321 15.7962C8.13417 16.6628 9.53321 18.7552 9.53321 20.4762Z" fill="black"/>
<path d="M49.0285 20.2904C46.639 18.1609 36.338 10.0637 34.617 8.78849C32.8961 7.51325 26.6685 3.60087 22.4837 2.52373C18.299 1.44658 17.779 2.07801 16.9247 1.8923C16.0704 1.70658 13.5323 1.1123 9.79324 2.26373C8.1961 2.75896 6.30181 3.30373 4.75419 4.69039C2.69895 6.52277 1.11419 9.37039 0.346572 10.918L0.18562 11.438C-0.0991424 12.3666 0.0246672 13.3818 0.519905 14.2113C0.940858 14.9171 1.47324 15.7342 1.86943 16.1799C2.2161 16.5637 2.63705 16.9723 2.9961 17.319C2.9961 17.2942 2.9961 17.2571 2.9961 17.2323C2.9961 15.9199 3.76371 15.078 4.95229 15.078C5.42276 15.078 5.93038 15.2142 6.45038 15.4742C8.24562 16.3656 9.69419 18.5571 9.69419 20.3523C9.69419 20.5875 9.66943 20.8104 9.6199 21.0209L26.817 29.6132C26.8047 29.4771 26.7923 29.3409 26.7923 29.2171C26.7923 27.9047 27.5599 27.0628 28.7485 27.0628C29.219 27.0628 29.7266 27.199 30.2466 27.459C32.0418 28.3504 33.4904 30.5418 33.4904 32.3371C33.4904 32.5475 33.4656 32.7332 33.4285 32.919L34.8028 33.5999C34.8028 33.5999 37.378 34.2685 39.0247 34.1199C40.6713 33.9713 44.0637 32.8571 46.7875 31.5075C49.5113 30.158 51.8142 27.7809 51.8637 26.5428C51.8885 26.0723 51.418 22.4199 49.0285 20.2904Z" fill="#C2F0D5"/>
<path d="M39.4703 13.0475C39.4703 13.0475 39.3218 12.0075 39.4703 11.7351C39.6189 11.4751 39.8789 11.0665 40.2132 11.3637C40.5475 11.6608 40.9189 12.5151 40.5846 13.3075C40.2503 14.0998 39.4703 13.0475 39.4703 13.0475Z" fill="#C2F0D5"/>
<path opacity="0.3" d="M1.7085 8.98657C1.7085 8.98657 9.68183 14.4961 18.8437 19.4237C28.0056 24.3513 32.8218 27.1494 32.8218 27.1494L27.1637 22.2961L6.87135 10.4599L1.7085 8.98657Z" fill="white"/>
<path d="M7.06934 10.5838L27.1512 22.3085C27.1512 22.3085 25.2074 13.7657 18.3484 10.3238C11.4893 6.88186 7.06934 10.5838 7.06934 10.5838Z" fill="#2D3134"/>
<path d="M15.4389 4.24463C18.1132 2.98177 20.2923 2.59796 20.2923 2.33796C20.2923 2.07796 13.4209 1.74368 9.17418 3.8732C4.92752 6.00273 5.13799 7.83511 6.74752 7.63701C8.35704 7.43892 10.5113 7.26558 11.1923 6.9313C11.8732 6.59701 13.1609 5.32177 15.4389 4.24463Z" fill="#2D3134"/>
<path d="M6.67323 7.35221C6.51228 7.35221 6.12847 7.31507 6.06657 7.0303C5.96752 6.60935 6.53704 5.43316 9.4218 3.99697C12.5789 2.42459 17.0237 2.30078 18.3113 2.30078C18.9675 2.30078 19.4628 2.32554 19.797 2.36269C19.6237 2.42459 19.438 2.4865 19.2399 2.5484C18.3485 2.83316 16.9989 3.2665 15.5009 3.98459C13.978 4.70269 12.8637 5.53221 12.1332 6.06459C11.7494 6.33697 11.4523 6.55983 11.2418 6.67126C10.7218 6.93126 9.11228 7.10459 7.70085 7.26554C7.41609 7.30269 7.13133 7.32745 6.87133 7.35221C6.79704 7.35221 6.73514 7.35221 6.67323 7.35221Z" fill="#656565"/>
<path d="M24.6876 13.9143C24.44 14.5952 28.4143 21.3057 29.6524 21.64C30.8781 21.9743 34.58 21.8628 38.2323 19.8448C41.8847 17.8267 42.5657 16.2667 42.38 15.6971C42.1943 15.14 35.1743 9.23428 34.0228 9.12285C32.8714 9.01142 24.9847 13.0848 24.6876 13.9143Z" fill="#2D3134"/>
<path opacity="0.2" d="M34.4314 28.4619C34.4314 28.4619 34.9514 27.7686 36.3504 27.6076C37.7495 27.4591 39.4581 27.5953 40.7333 28.7343C41.6866 29.5886 42.0333 29.9476 42.0333 29.9476C42.0333 29.9476 39.3343 30.8267 37.9971 30.641C36.6723 30.4553 34.4314 28.4619 34.4314 28.4619Z" fill="white"/>
<path d="M34.6914 28.2266C34.6914 28.2266 35.1743 27.5828 36.4619 27.4466C37.7495 27.3104 39.3343 27.4342 40.5105 28.4866C41.3895 29.2666 41.7114 29.6009 41.7114 29.6009C41.7114 29.6009 39.2228 30.418 37.9847 30.2447C36.7466 30.0714 34.6914 28.2266 34.6914 28.2266Z" fill="#E5E5E5"/>
<path opacity="0.2" d="M49.4494 26.0351C49.4494 26.0351 51.3313 24.277 51.2323 23.7818C51.1332 23.2742 49.6846 20.7732 49.4989 21.1446C49.3132 21.5161 48.917 22.1104 49.0656 22.618C49.2142 23.1256 49.4866 25.5894 49.4494 26.0351Z" fill="white"/>
<path d="M49.4371 25.6884C49.4371 25.6884 51.2076 23.9303 51.1209 23.4351C51.0219 22.9275 49.5733 20.4265 49.3876 20.798C49.2019 21.1694 48.8057 21.7637 48.9543 22.2713C49.1028 22.7665 49.4743 25.2303 49.4371 25.6884Z" fill="#E5E5E5"/>
<path d="M38.2199 33.1047L38.158 33.6495C38.158 33.6495 43.6922 32.9438 47.1713 30.8019C50.638 28.66 51.4799 26.9885 51.4799 26.9885C51.4799 26.9885 48.8056 29.8857 45.537 31.2228C42.1075 32.6095 38.2199 33.1047 38.2199 33.1047Z" fill="#2D3134"/>
<path d="M41.5875 15.239C40.9561 14.6323 39.7552 13.5676 38.2323 12.3419C35.7561 10.3361 34.3075 9.40757 33.9609 9.38281H33.9485C33.4409 9.38281 31.4228 10.2247 29.1695 11.3885C26.5818 12.7133 25.1952 13.6542 24.9971 13.939C25.0218 14.2857 25.7028 15.759 26.9656 17.7895C28.3647 20.0304 29.3799 21.1447 29.7142 21.2438C29.8999 21.2933 30.1352 21.3304 30.4075 21.3552C32.0418 21.1076 34.8647 20.4761 37.6133 18.8542C39.9409 17.48 41.0552 16.1552 41.5875 15.239Z" fill="#656565"/>
<path d="M8.76562 10.1133L8.50562 10.8933L16.2313 15.4L17.4694 10.4228L17.4323 10.3733C15.798 9.65519 14.1885 9.29614 12.6161 9.29614C10.9694 9.30852 9.65704 9.7171 8.76562 10.1133Z" fill="#656565"/>
<path d="M25.0466 20.5504L25.3561 18.6561C25.2199 18.3713 25.0837 18.0866 24.9228 17.7894C23.759 15.5856 21.7037 12.6266 18.4476 10.8809L17.6799 16.2418L25.0466 20.5504Z" fill="#656565"/>
<path opacity="0.2" d="M10.0533 13.9266C10.0533 14.2856 9.75621 14.4342 9.39716 14.2609C9.03811 14.0751 8.74097 13.6418 8.74097 13.2704C8.74097 12.8989 9.03811 12.7628 9.39716 12.9361C9.75621 13.1218 10.0533 13.5551 10.0533 13.9266Z" fill="black"/>
<path d="M8.34458 12.8123L8.05981 13.1342C8.05981 13.1342 10.1274 14.4837 10.3131 14.2113C10.5112 13.9513 8.34458 12.8123 8.34458 12.8123Z" fill="#C2F0D5"/>
<path opacity="0.2" d="M18.8685 18.9407C18.8685 19.2998 18.5714 19.4484 18.2123 19.275C17.8533 19.0893 17.5562 18.656 17.5562 18.2846C17.5562 17.9255 17.8533 17.7769 18.2123 17.9503C18.5714 18.136 18.8685 18.5693 18.8685 18.9407Z" fill="#C2F0D5"/>
<path d="M17.16 17.8142L16.8752 18.1361C16.8752 18.1361 18.9429 19.4856 19.1286 19.2133C19.3267 18.9533 17.16 17.8142 17.16 17.8142Z" fill="#C2F0D5"/>
<path opacity="0.2" d="M27.1018 22.296C27.1018 22.3084 26.8789 23.1627 26.6932 24.2027C26.5199 25.1436 26.4208 28.2636 26.3961 28.8208L16.5408 23.8312C16.5285 23.6332 16.3923 21.7884 16.3923 20.1046C16.3923 18.3341 16.838 16.3655 16.838 16.3531L16.7265 16.3284C16.7265 16.3531 16.2808 18.3341 16.2808 20.1046C16.2808 21.6646 16.3923 23.3731 16.4294 23.7693L11.5265 21.2931C11.4151 21.1446 10.2265 19.5227 9.06274 17.0589C7.86178 14.5208 8.14655 11.3017 8.15893 11.2646L8.0475 11.2522C8.0475 11.2893 7.75036 14.5331 8.96369 17.1084C10.1894 19.6836 11.4399 21.3551 11.4523 21.3674L11.4646 21.3798L26.4951 29.0065V28.9198C26.4951 28.8827 26.6065 25.2551 26.7923 24.2274C26.978 23.1998 27.2008 22.3331 27.2008 22.3331L27.1018 22.296Z" fill="black"/>
<path opacity="0.3" d="M38.8886 28.3628C38.8886 28.8085 38.5295 29.3409 38.0838 29.5637C37.6381 29.7866 37.2791 29.6009 37.2791 29.1676C37.2791 28.7218 37.6381 28.1895 38.0838 27.9666C38.5295 27.7437 38.8886 27.9171 38.8886 28.3628Z" fill="black"/>
<path opacity="0.3" d="M40.1265 28.6846C40.1265 28.9941 39.8789 29.3655 39.5694 29.5265C39.2598 29.6751 39.0122 29.5512 39.0122 29.2417C39.0122 28.9322 39.2598 28.5608 39.5694 28.3998C39.8789 28.2512 40.1265 28.3751 40.1265 28.6846Z" fill="black"/>
<path d="M37.1055 29.0932C37.1055 29.2542 36.9693 29.4647 36.8084 29.5389C36.6474 29.6256 36.5112 29.5513 36.5112 29.3904C36.5112 29.2294 36.6474 29.0189 36.8084 28.9447C36.9693 28.858 37.1055 28.9199 37.1055 29.0932Z" fill="white"/>
<path opacity="0.4" d="M38.5541 28.697C38.5541 28.9199 38.3684 29.1923 38.1579 29.3037C37.9351 29.4151 37.7617 29.3285 37.7617 29.1056C37.7617 28.8827 37.9474 28.6104 38.1579 28.4989C38.3684 28.3875 38.5541 28.4742 38.5541 28.697Z" fill="white"/>
<path opacity="0.4" d="M39.9161 28.9076C39.9161 29.0685 39.7799 29.279 39.6189 29.3533C39.458 29.44 39.3218 29.3657 39.3218 29.2047C39.3218 29.0438 39.458 28.8333 39.6189 28.759C39.7799 28.6723 39.9161 28.7466 39.9161 28.9076Z" fill="white"/>
<path d="M36.66 28.0905C36.66 28.2514 36.5238 28.4619 36.3628 28.5362C36.2019 28.6228 36.0657 28.5485 36.0657 28.3876C36.0657 28.2266 36.2019 28.0162 36.3628 27.9419C36.5238 27.8552 36.66 27.9295 36.66 28.0905Z" fill="white"/>
<path d="M49.8951 21.5781C49.8951 21.739 49.7589 21.9495 49.5979 22.0238C49.437 22.1105 49.3008 22.0362 49.3008 21.8752C49.3008 21.7143 49.437 21.5038 49.5979 21.4295C49.7589 21.3429 49.8951 21.4048 49.8951 21.5781Z" fill="white"/>
<path d="M50.4522 22.358C50.4522 22.519 50.316 22.7295 50.1551 22.8037C49.9941 22.8904 49.8579 22.8161 49.8579 22.6552C49.8579 22.4942 49.9941 22.2837 50.1551 22.2095C50.316 22.1228 50.4522 22.1971 50.4522 22.358Z" fill="white"/>
<path opacity="0.3" d="M50.6257 22.878C50.6257 23.2618 50.3162 23.7199 49.9323 23.9056C49.5485 24.0913 49.239 23.9428 49.239 23.5589C49.239 23.1751 49.5485 22.717 49.9323 22.5313C50.3162 22.3456 50.6257 22.5066 50.6257 22.878Z" fill="black"/>
<path opacity="0.4" d="M50.217 23.2866C50.217 23.4847 50.0561 23.7199 49.8703 23.819C49.6723 23.918 49.5237 23.8314 49.5237 23.6456C49.5237 23.4599 49.6846 23.2123 49.8703 23.1133C50.0561 23.0142 50.217 23.0885 50.217 23.2866Z" fill="white"/>
<path opacity="0.3" d="M50.0684 23.918C50.0684 23.6085 49.8207 23.4846 49.5112 23.6332C49.4122 23.6827 49.3255 23.7446 49.2512 23.8313C49.3007 24.1656 49.3503 24.5123 49.3874 24.8094C49.4246 24.797 49.4741 24.7846 49.5236 24.7599C49.8207 24.6113 50.0684 24.2275 50.0684 23.918Z" fill="black"/>
<path opacity="0.3" d="M34.6914 28.2142C35.2981 28.1647 37.0066 28.078 38.0838 28.338C39.1609 28.598 41.0304 29.3161 41.699 29.5885C41.6247 29.5142 41.2781 29.1675 40.5105 28.4866C39.3343 27.4342 37.7495 27.3104 36.4619 27.4466C35.2857 27.5704 34.7781 28.1152 34.6914 28.2142Z" fill="black"/>
<path d="M24.3533 19.2876C24.3533 19.2876 25.2819 19.7333 25.7028 20.2905C26.1114 20.8476 26.1114 21.1447 26.1114 21.1447C26.1114 21.1447 23.5362 21.7019 22.2609 20.8847C20.9114 20.0057 24.3533 19.2876 24.3533 19.2876Z" fill="#38C274"/>
<path d="M31.1257 21.4418L31.5962 21.4047L35.9295 19.2999L36.1648 18.8666L38.8019 17.6409L38.6905 17.4304L33.6514 19.6714L33.8 19.8571L35.7562 18.9904L35.6448 19.1142L31.4105 21.1447L31.1257 21.4418Z" fill="#2D3134"/>
<path d="M35.7065 20.2779H36.1151L39.5694 17.7151L39.9904 16.7246L41.3151 15.0408L41.2284 14.917L38.7399 17.7522L38.8389 17.9008L39.5075 17.3065L39.3218 17.6408L35.818 20.0675L35.7065 20.2779Z" fill="#2D3134"/>
<path d="M40.9314 28.4494L42.3676 29.737C42.3676 29.737 44.4476 29.3408 46.3047 28.3875C48.1619 27.4342 49.2762 26.1466 49.2762 26.1466L49.1276 24.2646C49.1276 24.2646 48.2857 25.7875 45.859 26.9885C43.7047 28.0656 40.9314 28.4494 40.9314 28.4494Z" fill="#2D3134"/>
<path opacity="0.29" d="M46.701 31.1733C49.4124 29.8113 51.7276 27.5085 51.7772 26.2704C51.7895 26.0599 51.8019 25.7133 51.5048 24.7352C51.48 24.6485 51.3686 24.6361 51.3191 24.7104C50.3657 26.0723 48.7438 27.8428 46.2181 29.0561C43.5933 30.319 40.3743 31.3961 37.8981 31.2723C37.3162 31.2475 37.2172 31.8294 37.1676 32.7456C37.1429 33.3399 37.6381 33.8352 38.2324 33.7733C40.3619 33.5628 43.7791 32.6342 46.701 31.1733Z" fill="black"/>
<path opacity="0.11" d="M35.0627 29.5512C34.196 28.5731 29.2436 23.3731 27.956 21.3427C26.2722 18.7055 23.5236 12.255 18.4598 9.84075C13.3836 7.42646 7.63885 8.45408 5.90552 8.57789C4.85313 8.6398 3.21885 8.25599 2.0798 7.93408C1.33694 9.06075 0.75504 10.1503 0.37123 10.9303L0.210278 11.4503C-0.0744842 12.3788 0.0493254 13.3941 0.544564 14.2236C0.965516 14.9293 1.4979 15.7465 1.89409 16.1922C2.24075 16.576 2.66171 16.9846 3.02075 17.3312C3.02075 17.3065 3.02075 17.2693 3.02075 17.2446C3.02075 15.9322 3.78837 15.0903 4.97694 15.0903C5.44742 15.0903 5.95504 15.2265 6.47504 15.4865C8.27028 16.3779 9.71885 18.5693 9.71885 20.3646C9.71885 20.5998 9.69409 20.8227 9.64456 21.0331L26.8417 29.6255C26.8293 29.4893 26.8169 29.3531 26.8169 29.2293C26.8169 27.9169 27.5846 27.075 28.7731 27.075C29.2436 27.075 29.7512 27.2112 30.2712 27.4712C32.0665 28.3627 33.515 30.5541 33.515 32.3493C33.515 32.5598 33.4903 32.7455 33.4531 32.9312L34.8274 33.6122C34.8274 33.6122 35.5455 33.7979 36.4617 33.9588C36.2388 32.1388 35.7808 30.3684 35.0627 29.5512Z" fill="black"/>
<path d="M0.544601 11.3143C0.544601 11.3143 1.3246 9.32096 1.75793 8.70192C2.19127 8.08287 2.67412 7.52573 2.67412 7.52573L2.53793 7.1543C2.53793 7.1543 1.62174 7.4762 1.46079 7.74858C1.28746 8.03334 0.358887 10.9181 0.358887 10.9181L0.544601 11.3143Z" fill="#C2F0D5"/>
<path opacity="0.2" d="M41.3522 15.5981C41.4389 15.4742 41.5132 15.3504 41.5751 15.239C40.9437 14.6323 39.7427 13.5676 38.2199 12.3419C35.7437 10.3361 34.2951 9.40757 33.9484 9.38281H33.936C33.4284 9.38281 31.4103 10.2247 29.157 11.3885C26.5694 12.7133 25.1827 13.6542 24.9846 13.939C24.997 14.0504 25.0713 14.2981 25.2199 14.6323C30.5065 12.9238 36.2884 13.2581 41.3522 15.5981Z" fill="black"/>
<path d="M44.9922 30.4674V32.275L48.2484 30.6531V28.8579L44.9922 30.4674Z" fill="#E5E5E5"/>
<path opacity="0.2" d="M49.4371 25.6884C49.4371 25.6884 51.2076 23.9303 51.1209 23.4351C51.0219 22.9275 49.5733 20.4265 49.3876 20.798C49.2019 21.1694 48.8057 21.7637 48.9543 22.2713C49.1028 22.7665 49.4743 25.2303 49.4371 25.6884Z" fill="black"/>
<path d="M24.8608 14.4589C24.4646 13.4808 21.7161 10.3608 18.6704 8.86274C14.8323 6.98084 11.4894 6.98084 10.8085 7.07989L10.7837 6.91893C11.477 6.81989 14.8694 6.81989 18.7446 8.71417C20.0942 9.37036 21.5551 10.4475 22.8799 11.7351C23.9323 12.7504 24.7865 13.8275 25.0218 14.397L24.8608 14.4589Z" fill="#2D3134"/>
<path d="M34.679 9.64268L34.6666 9.6303C33.4285 8.72649 30.1228 6.32459 27.077 4.83887C23.2513 2.96935 20.2675 2.38744 19.6113 2.38744V2.21411C20.2799 2.21411 23.3009 2.79602 27.1513 4.6903C30.2094 6.1884 33.5151 8.5903 34.7656 9.49411L34.778 9.50649L34.679 9.64268Z" fill="#2D3134"/>
</svg>
