<svg width="44" height="44" viewBox="0 0 44 44" fill="none" xmlns="http://www.w3.org/2000/svg">
<path d="M43.8662 16.5967C43.5413 15.5555 42.6795 14.7961 41.6442 14.6379L29.7775 12.8373L24.4692 1.60502C24.0039 0.621298 23.0485 0 21.9995 0C20.9504 0 19.9951 0.621298 19.5297 1.60502L14.2241 12.8373L2.35742 14.6379C1.31943 14.7961 0.457645 15.5555 0.135509 16.5967C-0.18938 17.638 0.0804433 18.7799 0.832094 19.545L9.41963 28.2892L7.39321 40.6375C7.21699 41.7162 7.641 42.8063 8.48902 43.4506C8.96534 43.8159 9.53252 44 10.1052 44C10.543 44 10.9835 43.8907 11.3855 43.6692L21.9995 37.8388L32.6134 43.6692C33.0154 43.8907 33.4559 44 33.8937 44C34.4636 44 35.0336 43.8159 35.5126 43.4506C36.3607 42.8063 36.7847 41.7162 36.6085 40.6375L34.582 28.2892L43.1696 19.545C43.9185 18.7828 44.1883 17.638 43.8662 16.5967Z" fill="#EFEFF4"/>
</svg>
