<svg width="52" height="34" viewBox="0 0 52 34" fill="none" xmlns="http://www.w3.org/2000/svg">
<path d="M7.50735 15.5267L12.9457 14.0101L9.19735 11.8542L7.30151 13.6851L7.50735 15.5267Z" fill="#2D3134"/>
<path d="M28.3507 26.3383L33.789 24.8216L30.0299 22.6658L28.134 24.4966L28.3507 26.3383Z" fill="#2D3134"/>
<path opacity="0.29" d="M7.50735 15.5267L12.9457 14.0101L9.19735 11.8542L7.30151 13.6851L7.50735 15.5267Z" fill="black"/>
<path opacity="0.29" d="M28.3507 26.3383L33.789 24.8216L30.0299 22.6658L28.134 24.4966L28.3507 26.3383Z" fill="black"/>
<path d="M32.3265 24.1826C31.6007 23.8143 30.9399 23.7709 30.4524 23.9984L29.4232 24.5509C28.9032 24.7893 28.5674 25.3201 28.5674 26.1001C28.5674 27.6059 29.7915 29.4476 31.2974 30.1951C32.0449 30.5634 32.7165 30.6068 33.2149 30.3684C33.2149 30.3684 34.2332 29.8268 34.3415 29.7618C34.7857 29.5018 35.0565 28.9926 35.0565 28.2884C35.0565 26.7718 33.8324 24.9409 32.3265 24.1826Z" fill="#2D3134"/>
<path opacity="0.29" d="M33.2473 30.3575C33.4423 30.26 34.244 29.8267 34.3415 29.7617C34.7856 29.5017 35.0565 28.9925 35.0565 28.2883C35.0565 27.6817 34.8615 27.0208 34.5257 26.4033L33.4965 26.9558C33.8323 27.5733 34.0273 28.2342 34.0273 28.8408C34.0381 29.5775 33.7348 30.1083 33.2473 30.3575Z" fill="black"/>
<path d="M34.0381 28.8409C34.0381 30.3467 32.814 30.9642 31.3081 30.2059C29.8023 29.4476 28.5781 27.6167 28.5781 26.1109C28.5781 24.6051 29.8023 23.9876 31.3081 24.7459C32.814 25.4934 34.0381 27.3351 34.0381 28.8409Z" fill="#2D3134"/>
<path d="M33.4314 28.5375C33.4314 29.7184 32.4781 30.195 31.2973 29.61C30.1164 29.025 29.1631 27.5842 29.1631 26.4034C29.1631 25.2225 30.1164 24.7459 31.2973 25.3309C32.4781 25.9267 33.4314 27.3567 33.4314 28.5375Z" fill="#E5E5E5"/>
<path d="M32.7056 29.4909C33.0306 29.3067 33.2256 28.9492 33.2256 28.4401C33.2256 28.3967 33.2256 28.3534 33.2256 28.3209L32.0339 28.1367L32.7056 29.4909Z" fill="#2D3134"/>
<path d="M31.7523 27.14L32.9981 27.4108C32.7382 26.7933 32.2723 26.1866 31.709 25.7966L31.7523 27.14Z" fill="#2D3134"/>
<path d="M30.8533 26.6958L30.8966 25.3958C30.3333 25.2333 29.8674 25.3633 29.6074 25.7208L30.8533 26.6958Z" fill="#2D3134"/>
<path d="M29.3799 26.3926C29.3799 26.4359 29.3799 26.4684 29.3799 26.5117C29.3799 27.0209 29.5749 27.5734 29.8999 28.0826L30.5824 27.4109L29.3799 26.3926Z" fill="#2D3134"/>
<path d="M31.2975 28.2883L30.5608 28.8842C30.7883 29.09 31.0375 29.2633 31.2975 29.3933C31.5575 29.5233 31.8066 29.5992 32.0341 29.61L31.2975 28.2883Z" fill="#2D3134"/>
<path opacity="0.11" d="M34.0381 28.8409C34.0381 30.3467 32.814 30.9642 31.3081 30.2059C29.8023 29.4476 28.5781 27.6167 28.5781 26.1109C28.5781 24.6051 29.8023 23.9876 31.3081 24.7459C32.814 25.4934 34.0381 27.3351 34.0381 28.8409Z" fill="black"/>
<path d="M11.505 13.7068C10.7792 13.3384 10.1183 13.2951 9.63085 13.5226L8.60168 14.0751C8.08168 14.3134 7.74585 14.8443 7.74585 15.6243C7.74585 17.1301 8.97002 18.9718 10.4758 19.7193C11.2233 20.0876 11.895 20.1309 12.3933 19.8926C12.3933 19.8926 13.4117 19.3509 13.52 19.2859C13.9642 19.0259 14.235 18.5168 14.235 17.8126C14.2458 16.2959 13.0217 14.4651 11.505 13.7068Z" fill="#2D3134"/>
<path opacity="0.29" d="M12.4368 19.8817C12.6318 19.7842 13.4334 19.3508 13.5309 19.2858C13.9751 19.0258 14.2459 18.5167 14.2459 17.8125C14.2459 17.2058 14.0509 16.545 13.7151 15.9275L12.6859 16.48C13.0218 17.0975 13.2168 17.7583 13.2168 18.365C13.2168 19.1017 12.9134 19.6217 12.4368 19.8817Z" fill="black"/>
<path d="M13.2166 18.3543C13.2166 19.8602 11.9924 20.4777 10.4866 19.7193C8.98076 18.961 7.75659 17.1302 7.75659 15.6243C7.75659 14.1185 8.98076 13.501 10.4866 14.2593C11.9924 15.0177 13.2166 16.8485 13.2166 18.3543Z" fill="#2D3134"/>
<path d="M12.6209 18.0619C12.6209 19.2428 11.6675 19.7194 10.4867 19.1344C9.30587 18.5494 8.35254 17.1086 8.35254 15.9278C8.35254 14.7469 9.30587 14.2703 10.4867 14.8553C11.6675 15.4403 12.6209 16.8811 12.6209 18.0619Z" fill="#E5E5E5"/>
<path d="M11.8948 19.0043C12.2198 18.8201 12.4148 18.4626 12.4148 17.9535C12.4148 17.9101 12.4148 17.8668 12.4148 17.8343L11.2231 17.6501L11.8948 19.0043Z" fill="#2D3134"/>
<path d="M10.9308 16.6534L12.1766 16.9242C11.9166 16.3067 11.4508 15.7001 10.8875 15.3101L10.9308 16.6534Z" fill="#2D3134"/>
<path d="M10.0425 16.2093L10.0858 14.9093C9.52246 14.7468 9.05663 14.8768 8.79663 15.2343L10.0425 16.2093Z" fill="#2D3134"/>
<path d="M8.56909 15.906C8.56909 15.9493 8.56909 15.9818 8.56909 16.0252C8.56909 16.5343 8.76409 17.0868 9.08909 17.596L9.77159 16.9243L8.56909 15.906Z" fill="#2D3134"/>
<path d="M10.4867 17.8125L9.75 18.4083C9.9775 18.6142 10.2267 18.7875 10.4867 18.9175C10.7467 19.0475 10.9958 19.1233 11.2233 19.1342L10.4867 17.8125Z" fill="#2D3134"/>
<path opacity="0.11" d="M13.2166 18.3543C13.2166 19.8602 11.9924 20.4777 10.4866 19.7193C8.98076 18.961 7.75659 17.1302 7.75659 15.6243C7.75659 14.1185 8.98076 13.501 10.4866 14.2593C11.9924 15.0177 13.2166 16.8485 13.2166 18.3543Z" fill="black"/>
<path d="M47.7749 18.1917C45.6841 16.3284 36.6707 9.24338 35.1649 8.12755C33.6591 7.01171 28.2099 3.58838 24.5482 2.64588C20.8866 1.70338 20.4316 2.25588 19.6841 2.09338C18.9366 1.93088 16.7157 1.41088 13.4441 2.41838C12.0466 2.85171 10.3891 3.32838 9.03492 4.54171C7.23658 6.14505 5.84992 8.63671 5.17825 9.99088L5.03742 10.4459C4.78825 11.2584 4.89658 12.1467 5.32992 12.8725C5.69825 13.49 6.16408 14.205 6.51075 14.595C6.81408 14.9309 7.18242 15.2884 7.49658 15.5917C7.49658 15.57 7.49658 15.5375 7.49658 15.5159C7.49658 14.3675 8.16825 13.6309 9.20825 13.6309C9.61992 13.6309 10.0641 13.75 10.5191 13.9775C12.0899 14.7575 13.3574 16.675 13.3574 18.2459C13.3574 18.4517 13.3357 18.6467 13.2924 18.8309L28.3399 26.3492C28.3291 26.23 28.3182 26.1109 28.3182 26.0025C28.3182 24.8542 28.9899 24.1175 30.0299 24.1175C30.4416 24.1175 30.8857 24.2367 31.3407 24.4642C32.9116 25.2442 34.1791 27.1617 34.1791 28.7325C34.1791 28.9167 34.1574 29.0792 34.1249 29.2417L35.3274 29.8375C35.3274 29.8375 37.5807 30.4225 39.0216 30.2925C40.4624 30.1625 43.4307 29.1875 45.8141 28.0067C48.1974 26.8259 50.2124 24.7459 50.2557 23.6625C50.2774 23.2509 49.8657 20.055 47.7749 18.1917Z" fill="#38C274"/>
<path d="M39.4115 11.8543C39.4115 11.8543 39.2815 10.9443 39.4115 10.7059C39.5415 10.4784 39.769 10.1209 40.0615 10.3809C40.354 10.6409 40.679 11.3884 40.3865 12.0818C40.094 12.7751 39.4115 11.8543 39.4115 11.8543Z" fill="#2D3134"/>
<path opacity="0.3" d="M6.36987 8.30078C6.36987 8.30078 13.3465 13.1216 21.3632 17.4333C29.3799 21.7449 33.594 24.1933 33.594 24.1933L28.6432 19.9466L10.8874 9.58995L6.36987 8.30078Z" fill="white"/>
<path d="M11.0608 9.69845L28.6325 19.9576C28.6325 19.9576 26.9316 12.4826 20.93 9.47094C14.9283 6.45928 11.0608 9.69845 11.0608 9.69845Z" fill="#2D3134"/>
<path d="M18.384 4.1518C20.724 3.0468 22.6307 2.71096 22.6307 2.48346C22.6307 2.25596 16.6182 1.96346 12.9024 3.8268C9.18655 5.69013 9.37071 7.29346 10.779 7.12013C12.1874 6.9468 14.0724 6.79513 14.6682 6.50263C15.264 6.21013 16.3907 5.0943 18.384 4.1518Z" fill="#2D3134"/>
<path d="M10.714 6.87093C10.5732 6.87093 10.2374 6.83843 10.1832 6.58926C10.0965 6.22093 10.5949 5.19176 13.119 3.93509C15.8815 2.55926 19.7707 2.45093 20.8974 2.45093C21.4715 2.45093 21.9049 2.47259 22.1974 2.50509C22.0457 2.55926 21.8832 2.61343 21.7099 2.66759C20.9299 2.91676 19.749 3.29593 18.4382 3.92426C17.1057 4.55259 16.1307 5.27843 15.4915 5.74426C15.1557 5.98259 14.8957 6.17759 14.7115 6.27509C14.2565 6.50259 12.8482 6.65426 11.6132 6.79509C11.364 6.82759 11.1149 6.84926 10.8874 6.87093C10.8224 6.87093 10.7682 6.87093 10.714 6.87093Z" fill="#656565"/>
<path d="M26.4765 12.6124C26.2598 13.2083 29.7373 19.0799 30.8207 19.3724C31.8932 19.6649 35.1323 19.5674 38.3282 17.8016C41.524 16.0358 42.1198 14.6708 41.9573 14.1724C41.7948 13.6849 35.6523 8.51743 34.6448 8.41993C33.6373 8.32243 26.7365 11.8866 26.4765 12.6124Z" fill="#2D3134"/>
<path opacity="0.2" d="M35.0024 25.3417C35.0024 25.3417 35.4574 24.735 36.6816 24.5942C37.9058 24.4642 39.4008 24.5833 40.5166 25.58C41.3508 26.3275 41.6541 26.6417 41.6541 26.6417C41.6541 26.6417 39.2924 27.4108 38.1224 27.2483C36.9633 27.0858 35.0024 25.3417 35.0024 25.3417Z" fill="white"/>
<path d="M35.23 25.1359C35.23 25.1359 35.6525 24.5726 36.7791 24.4534C37.9058 24.3342 39.2925 24.4426 40.3216 25.3634C41.0908 26.0459 41.3725 26.3384 41.3725 26.3384C41.3725 26.3384 39.195 27.0534 38.1116 26.9017C37.0283 26.7501 35.23 25.1359 35.23 25.1359Z" fill="#E5E5E5"/>
<path opacity="0.2" d="M48.1432 23.2184C48.1432 23.2184 49.7899 21.6801 49.7032 21.2468C49.6165 20.8026 48.349 18.6143 48.1865 18.9393C48.024 19.2643 47.6774 19.7843 47.8074 20.2284C47.9374 20.6726 48.1757 22.8284 48.1432 23.2184Z" fill="white"/>
<path d="M48.1325 22.915C48.1325 22.915 49.6816 21.3766 49.6058 20.9433C49.5191 20.4991 48.2516 18.3108 48.0891 18.6358C47.9266 18.9608 47.58 19.4808 47.71 19.925C47.84 20.3583 48.165 22.5141 48.1325 22.915Z" fill="#E5E5E5"/>
<path d="M38.3174 29.4042L38.2632 29.8808C38.2632 29.8808 43.1057 29.2633 46.1498 27.3892C49.1832 25.515 49.9198 24.0525 49.9198 24.0525C49.9198 24.0525 47.5798 26.5875 44.7198 27.7575C41.719 28.9708 38.3174 29.4042 38.3174 29.4042Z" fill="#2D3134"/>
<path d="M41.264 13.7716C40.7115 13.2408 39.6607 12.3091 38.3281 11.2366C36.1615 9.48163 34.894 8.66913 34.5906 8.64746H34.5798C34.1357 8.64746 32.3698 9.38413 30.3981 10.4025C28.134 11.5616 26.9206 12.385 26.7473 12.6341C26.769 12.9375 27.3648 14.2266 28.4698 16.0033C29.694 17.9641 30.5823 18.9391 30.8748 19.0258C31.0373 19.0691 31.2432 19.1016 31.4815 19.1233C32.9115 18.9066 35.3815 18.3541 37.7865 16.935C39.8231 15.7325 40.7982 14.5733 41.264 13.7716Z" fill="#656565"/>
<path d="M12.5449 9.28678L12.3174 9.96928L19.0774 13.9126L20.1607 9.55761L20.1282 9.51428C18.6982 8.88594 17.2899 8.57178 15.914 8.57178C14.4732 8.58261 13.3249 8.94011 12.5449 9.28678Z" fill="#656565"/>
<path d="M26.7908 18.4193L27.0616 16.7618C26.9425 16.5127 26.8233 16.2635 26.6825 16.0035C25.6641 14.0752 23.8658 11.486 21.0166 9.9585L20.345 14.6493L26.7908 18.4193Z" fill="#656565"/>
<path opacity="0.2" d="M13.6715 12.6233C13.6715 12.9374 13.4115 13.0674 13.0974 12.9158C12.7832 12.7533 12.5232 12.3741 12.5232 12.0491C12.5232 11.7241 12.7832 11.6049 13.0974 11.7566C13.4115 11.9191 13.6715 12.2983 13.6715 12.6233Z" fill="black"/>
<path d="M12.1767 11.6484L11.9275 11.9301C11.9275 11.9301 13.7367 13.1109 13.8992 12.8726C14.0725 12.6451 12.1767 11.6484 12.1767 11.6484Z" fill="#1F5C3A"/>
<path opacity="0.2" d="M21.3849 17.0108C21.3849 17.3249 21.1249 17.4549 20.8107 17.3033C20.4966 17.1408 20.2366 16.7616 20.2366 16.4366C20.2366 16.1224 20.4966 15.9924 20.8107 16.1441C21.1249 16.3066 21.3849 16.6858 21.3849 17.0108Z" fill="black"/>
<path d="M19.89 16.0251L19.6409 16.3068C19.6409 16.3068 21.45 17.4876 21.6125 17.2493C21.7859 17.0218 19.89 16.0251 19.89 16.0251Z" fill="#1F5C3A"/>
<path opacity="0.2" d="M28.589 19.9468C28.589 19.9576 28.394 20.7051 28.2315 21.6151C28.0799 22.4384 27.9932 25.1684 27.9715 25.6559L19.3482 21.2901C19.3374 21.1168 19.2182 19.5026 19.2182 18.0293C19.2182 16.4801 19.6082 14.7576 19.6082 14.7468L19.5107 14.7251C19.5107 14.7468 19.1207 16.4801 19.1207 18.0293C19.1207 19.3943 19.2182 20.8893 19.2507 21.2359L14.9607 19.0693C14.8632 18.9393 13.8232 17.5201 12.8049 15.3643C11.754 13.1434 12.0032 10.3268 12.014 10.2943L11.9165 10.2834C11.9165 10.3159 11.6565 13.1543 12.7182 15.4076C13.7907 17.6609 14.8849 19.1234 14.8957 19.1343L14.9065 19.1451L28.0582 25.8184V25.7426C28.0582 25.7101 28.1557 22.5359 28.3182 21.6368C28.4807 20.7376 28.6757 19.9793 28.6757 19.9793L28.589 19.9468Z" fill="black"/>
<path opacity="0.3" d="M38.9025 25.255C38.9025 25.645 38.5883 26.1108 38.1983 26.3058C37.8083 26.5008 37.4941 26.3383 37.4941 25.9592C37.4941 25.5692 37.8083 25.1033 38.1983 24.9083C38.5883 24.7133 38.9025 24.865 38.9025 25.255Z" fill="black"/>
<path opacity="0.3" d="M39.9857 25.5367C39.9857 25.8075 39.7691 26.1325 39.4982 26.2733C39.2274 26.4033 39.0107 26.295 39.0107 26.0242C39.0107 25.7533 39.2274 25.4283 39.4982 25.2875C39.7691 25.1575 39.9857 25.2658 39.9857 25.5367Z" fill="black"/>
<path d="M37.3425 25.8943C37.3425 26.0351 37.2233 26.2193 37.0825 26.2843C36.9417 26.3601 36.8225 26.2951 36.8225 26.1543C36.8225 26.0134 36.9417 25.8293 37.0825 25.7643C37.2233 25.6884 37.3425 25.7426 37.3425 25.8943Z" fill="white"/>
<path opacity="0.4" d="M38.6098 25.5475C38.6098 25.7425 38.4473 25.9809 38.2632 26.0784C38.0682 26.1759 37.9165 26.1 37.9165 25.905C37.9165 25.71 38.079 25.4717 38.2632 25.3742C38.4473 25.2767 38.6098 25.3525 38.6098 25.5475Z" fill="white"/>
<path opacity="0.4" d="M39.8015 25.7316C39.8015 25.8724 39.6823 26.0566 39.5415 26.1216C39.4007 26.1974 39.2815 26.1324 39.2815 25.9916C39.2815 25.8508 39.4007 25.6666 39.5415 25.6016C39.6823 25.5258 39.8015 25.5908 39.8015 25.7316Z" fill="white"/>
<path d="M36.9524 25.0168C36.9524 25.1576 36.8332 25.3418 36.6924 25.4068C36.5515 25.4826 36.4324 25.4176 36.4324 25.2768C36.4324 25.1359 36.5515 24.9518 36.6924 24.8868C36.8332 24.8109 36.9524 24.8759 36.9524 25.0168Z" fill="white"/>
<path d="M48.5332 19.3183C48.5332 19.4592 48.414 19.6433 48.2732 19.7083C48.1323 19.7842 48.0132 19.7192 48.0132 19.5783C48.0132 19.4375 48.1323 19.2533 48.2732 19.1883C48.414 19.1125 48.5332 19.1667 48.5332 19.3183Z" fill="white"/>
<path d="M49.0207 20.0009C49.0207 20.1417 48.9016 20.3259 48.7607 20.3909C48.6199 20.4667 48.5007 20.4017 48.5007 20.2609C48.5007 20.1201 48.6199 19.9359 48.7607 19.8709C48.9016 19.7951 49.0207 19.8601 49.0207 20.0009Z" fill="white"/>
<path opacity="0.3" d="M49.1723 20.4558C49.1723 20.7917 48.9015 21.1925 48.5656 21.355C48.2298 21.5175 47.959 21.3875 47.959 21.0517C47.959 20.7158 48.2298 20.315 48.5656 20.1525C48.9015 19.99 49.1723 20.1308 49.1723 20.4558Z" fill="black"/>
<path opacity="0.4" d="M48.8149 20.8134C48.8149 20.9868 48.6741 21.1926 48.5116 21.2793C48.3383 21.3659 48.2083 21.2901 48.2083 21.1276C48.2083 20.9651 48.3491 20.7484 48.5116 20.6618C48.6741 20.5751 48.8149 20.6401 48.8149 20.8134Z" fill="white"/>
<path opacity="0.3" d="M48.685 21.3658C48.685 21.0949 48.4683 20.9866 48.1975 21.1166C48.1108 21.1599 48.035 21.2141 47.97 21.2899C48.0133 21.5824 48.0566 21.8858 48.0891 22.1458C48.1216 22.1349 48.165 22.1241 48.2083 22.1024C48.4683 21.9724 48.685 21.6366 48.685 21.3658Z" fill="black"/>
<path opacity="0.3" d="M35.23 25.1251C35.7608 25.0817 37.2558 25.0059 38.1983 25.2334C39.1408 25.4609 40.7766 26.0892 41.3616 26.3276C41.2966 26.2626 40.9933 25.9592 40.3216 25.3634C39.2925 24.4426 37.9058 24.3342 36.7791 24.4534C35.75 24.5617 35.3058 25.0384 35.23 25.1251Z" fill="black"/>
<path d="M26.1842 17.3142C26.1842 17.3142 26.9967 17.7042 27.365 18.1917C27.7225 18.6792 27.7225 18.9392 27.7225 18.9392C27.7225 18.9392 25.4692 19.4267 24.3533 18.7117C23.1725 17.9425 26.1842 17.3142 26.1842 17.3142Z" fill="#2D3134"/>
<path d="M32.1099 19.1992L32.5215 19.1667L36.3132 17.325L36.519 16.9459L38.8265 15.8734L38.729 15.6892L34.3199 17.65L34.4499 17.8125L36.1615 17.0542L36.064 17.1625L32.359 18.9392L32.1099 19.1992Z" fill="#2D3134"/>
<path d="M36.1182 18.1808H36.4757L39.4982 15.9383L39.8665 15.0717L41.0257 13.5983L40.9498 13.49L38.7723 15.9708L38.859 16.1008L39.444 15.5808L39.2815 15.8733L36.2157 17.9967L36.1182 18.1808Z" fill="#2D3134"/>
<path d="M40.6899 25.3309L41.9466 26.4575C41.9466 26.4575 43.7666 26.1109 45.3916 25.2767C47.0166 24.4425 47.9916 23.3159 47.9916 23.3159L47.8616 21.6692C47.8616 21.6692 47.1249 23.0017 45.0016 24.0525C43.1166 24.995 40.6899 25.3309 40.6899 25.3309Z" fill="#2D3134"/>
<path opacity="0.29" d="M45.7382 27.7143C48.1107 26.5226 50.1365 24.5076 50.1799 23.4243C50.1907 23.2401 50.2015 22.9368 49.9415 22.0809C49.9199 22.0051 49.8224 21.9943 49.779 22.0593C48.9449 23.2509 47.5257 24.8001 45.3157 25.8618C43.019 26.9668 40.2024 27.9093 38.0357 27.8009C37.5265 27.7793 37.4399 28.2884 37.3965 29.0901C37.3749 29.6101 37.8082 30.0434 38.3282 29.9893C40.1915 29.8051 43.1815 28.9926 45.7382 27.7143Z" fill="black"/>
<path d="M5.35146 10.3375C5.35146 10.3375 6.03396 8.59334 6.41313 8.05168C6.7923 7.51001 7.2148 7.02251 7.2148 7.02251L7.09563 6.69751C7.09563 6.69751 6.29396 6.97918 6.15313 7.21751C6.00146 7.46668 5.18896 9.99084 5.18896 9.99084L5.35146 10.3375Z" fill="#CC291F"/>
<path opacity="0.2" d="M41.0582 14.0858C41.1341 13.9775 41.1991 13.8691 41.2532 13.7716C40.7007 13.2408 39.6499 12.3091 38.3174 11.2366C36.1507 9.48163 34.8832 8.66913 34.5799 8.64746H34.5691C34.1249 8.64746 32.3591 9.38413 30.3874 10.4025C28.1232 11.5616 26.9099 12.385 26.7366 12.6341C26.7474 12.7316 26.8124 12.9483 26.9424 13.2408C31.5682 11.7458 36.6274 12.0383 41.0582 14.0858Z" fill="black"/>
<path d="M44.2432 27.0968V28.6785L47.0923 27.2593V25.6885L44.2432 27.0968Z" fill="#E5E5E5"/>
<path opacity="0.2" d="M48.1325 22.915C48.1325 22.915 49.6816 21.3766 49.6058 20.9433C49.5191 20.4991 48.2516 18.3108 48.0891 18.6358C47.9266 18.9608 47.58 19.4808 47.71 19.925C47.84 20.3583 48.165 22.5141 48.1325 22.915Z" fill="black"/>
<path d="M26.6283 13.0892C26.2816 12.2333 23.8766 9.50333 21.2116 8.19249C17.8533 6.54583 14.9283 6.54583 14.3325 6.63249L14.3108 6.49166C14.9175 6.40499 17.8858 6.40499 21.2766 8.06249C22.4575 8.63666 23.7358 9.57916 24.895 10.7058C25.8158 11.5942 26.5633 12.5367 26.7691 13.035L26.6283 13.0892Z" fill="#2D3134"/>
<path d="M35.2191 8.875L35.2083 8.86417C34.1249 8.07333 31.2324 5.97167 28.5674 4.67167C25.2199 3.03583 22.6091 2.52667 22.0349 2.52667V2.375C22.6199 2.375 25.2632 2.88417 28.6324 4.54167C31.3083 5.8525 34.2008 7.95417 35.2949 8.745L35.3058 8.75583L35.2191 8.875Z" fill="#2D3134"/>
<path d="M15.1665 15.9167V17.0001L16.2498 17.5417V16.4584L15.1665 15.9167Z" fill="#2D3134"/>
<path d="M17.3331 15.9167L16.2498 15.375V16.4583L17.3331 17V15.9167Z" fill="#2D3134"/>
<path d="M16.2498 18.6251L17.3331 19.1667V18.0834L16.2498 17.5417V18.6251Z" fill="#2D3134"/>
<path d="M17.3333 17V18.0833L18.4166 18.625V17.5417L17.3333 17Z" fill="#2D3134"/>
<path d="M19.4998 16.9999L18.4165 16.4583V17.5416L19.4998 18.0833V16.9999Z" fill="#2D3134"/>
<path d="M18.4165 19.7083L19.4998 20.25V19.1667L18.4165 18.625V19.7083Z" fill="#2D3134"/>
<path d="M19.4998 18.0833V19.1666L20.5831 19.7083V18.6249L19.4998 18.0833Z" fill="#2D3134"/>
<path d="M21.6666 18.0834L20.5833 17.5417V18.6251L21.6666 19.1667V18.0834Z" fill="#2D3134"/>
<path d="M20.5833 20.7916L21.6666 21.3333V20.2499L20.5833 19.7083V20.7916Z" fill="#2D3134"/>
<path d="M21.6665 19.1667V20.2501L22.7498 20.7917V19.7084L21.6665 19.1667Z" fill="#2D3134"/>
<path d="M25.9998 21.3333V22.4166L27.0831 22.9583V21.8749L25.9998 21.3333Z" fill="#2D3134"/>
<path d="M25.9998 20.2499L24.9165 19.7083V20.7916L25.9998 21.3333V20.2499Z" fill="#2D3134"/>
<path d="M24.9165 22.9583L25.9998 23.5V22.4167L24.9165 21.875V22.9583Z" fill="#2D3134"/>
<path d="M23.8333 20.25V21.3333L24.9166 21.875V20.7917L23.8333 20.25Z" fill="#2D3134"/>
<path d="M23.8331 19.1667L22.7498 18.625V19.7083L23.8331 20.25V19.1667Z" fill="#2D3134"/>
<path d="M22.7498 21.8751L23.8331 22.4167V21.3334L22.7498 20.7917V21.8751Z" fill="#2D3134"/>
<path d="M23.6166 8.2249L28.8166 5.6249L26.8666 4.6499L21.7749 7.2499L23.6166 8.2249Z" fill="#2D3134"/>
<path d="M26.4441 3.61002L23.0858 5.28919C22.9341 5.36502 22.8149 5.48419 22.7391 5.64669L22.0891 7.03336L23.6058 7.79169L28.3724 5.40836L27.6249 4.01086C27.5491 3.85919 27.4191 3.74002 27.2566 3.67502L27.0616 3.58836C26.8774 3.51252 26.6499 3.51252 26.4441 3.61002Z" fill="#E5E5E5"/>
<path opacity="0.11" d="M23.4542 5.65752L22.9125 5.41919C22.8475 5.48419 22.7933 5.54919 22.7608 5.63586L22.1108 7.02252L23.6275 7.78086V5.90669C23.6167 5.80919 23.5517 5.70086 23.4542 5.65752Z" fill="black"/>
<path opacity="0.29" d="M27.6358 4.01077C27.5924 3.93493 27.5383 3.8591 27.4733 3.80493L23.9199 5.5816C23.7358 5.66827 23.6274 5.86327 23.6274 6.05827V7.7916L28.3941 5.40827L27.6358 4.01077Z" fill="black"/>
<path d="M27.5166 5.40841L24.2666 7.03342V5.95008L27.0833 4.54175L27.5166 5.40841Z" fill="#2D3134"/>
<path opacity="0.11" d="M35.555 26.2951C34.7967 25.4393 30.4633 20.8893 29.3366 19.1126C27.8633 16.8051 25.4583 11.161 21.0275 9.04846C16.5858 6.93596 11.5591 7.83513 10.0425 7.94346C9.12165 7.99763 7.69165 7.66179 6.69498 7.38013C6.04498 8.36596 5.53581 9.31929 5.19998 10.0018L5.05915 10.4568C4.80998 11.2693 4.91831 12.1576 5.35165 12.8835C5.71998 13.501 6.18581 14.216 6.53248 14.606C6.83581 14.9418 7.20415 15.2993 7.51831 15.6026C7.51831 15.581 7.51831 15.5485 7.51831 15.5268C7.51831 14.3785 8.18998 13.6418 9.22998 13.6418C9.64165 13.6418 10.0858 13.761 10.5408 13.9885C12.1116 14.7685 13.3791 16.686 13.3791 18.2568C13.3791 18.4626 13.3575 18.6576 13.3141 18.8418L28.3616 26.3601C28.3508 26.241 28.34 26.1218 28.34 26.0135C28.34 24.8651 29.0116 24.1285 30.0516 24.1285C30.4633 24.1285 30.9075 24.2476 31.3625 24.4751C32.9333 25.2551 34.2008 27.1726 34.2008 28.7435C34.2008 28.9276 34.1792 29.0901 34.1467 29.2526L35.3492 29.8485C35.3492 29.8485 35.9775 30.011 36.7792 30.1518C36.5842 28.5593 36.1833 27.0101 35.555 26.2951Z" fill="black"/>
</svg>
