<svg width="16" height="16" viewBox="0 0 16 16" fill="none" xmlns="http://www.w3.org/2000/svg">
<path d="M14.6668 8.00001C14.6668 11.6819 11.682 14.6667 8.00016 14.6667C4.31826 14.6667 1.3335 11.6819 1.3335 8.00001C1.3335 4.31811 4.31826 1.33334 8.00016 1.33334C11.682 1.33334 14.6668 4.31811 14.6668 8.00001Z" stroke="#1B4C31"/>
<path d="M9.80696 6.70741C9.74089 6.19897 9.15709 5.37749 8.10736 5.37747C6.88763 5.37745 6.3744 6.05298 6.27026 6.39075C6.10779 6.84254 6.14029 7.77141 7.56996 7.87267C9.35709 7.99934 10.073 8.21027 9.98196 9.30401C9.89083 10.3977 8.89463 10.634 8.10736 10.6086C7.32003 10.5833 6.03192 10.2217 5.98193 9.24887M7.98243 4.66537V5.37989M7.98243 10.6021V11.332" stroke="#1B4C31" stroke-linecap="round"/>
</svg>
