<svg width="17" height="16" viewBox="0 0 17 16" fill="none" xmlns="http://www.w3.org/2000/svg">
<path d="M8.50008 14.6666C12.1819 14.6666 15.1667 11.6818 15.1667 7.99992C15.1667 4.31802 12.1819 1.33325 8.50008 1.33325C5.51496 1.33325 3.01625 3.29518 2.16675 5.99992H3.83341" stroke="#1B4C31" stroke-linecap="round" stroke-linejoin="round"/>
<path d="M8.5 5.33325V7.99992L9.83333 9.33325" stroke="#1B4C31" stroke-linecap="round" stroke-linejoin="round"/>
<path d="M1.83325 8C1.83325 8.22487 1.84339 8.44727 1.86321 8.66667M6.49992 14.6667C6.27219 14.5917 6.04973 14.5043 5.83325 14.4052M2.63951 11.3333C2.51095 11.0856 2.39627 10.8289 2.29657 10.5641M3.72073 12.871C3.92452 13.0905 4.14196 13.2961 4.37162 13.4861" stroke="#1B4C31" stroke-linecap="round" stroke-linejoin="round"/>
</svg>
