<svg width="55" height="55" viewBox="0 0 55 55" fill="none" xmlns="http://www.w3.org/2000/svg">
<path fill-rule="evenodd" clip-rule="evenodd" d="M27.5 55C42.6878 55 55 42.6878 55 27.5C55 12.3122 42.6878 0 27.5 0C12.3122 0 0 12.3122 0 27.5C0 42.6878 12.3122 55 27.5 55Z" fill="#4CE5B1"/>
<rect x="8.25" y="8.25" width="38.5" height="38.5" fill="#FF0000" fill-opacity="0.01"/>
<path d="M24.6419 19.3524C24.2497 14.8412 19.5434 12.6277 19.3443 12.5374C19.1574 12.4491 18.948 12.4224 18.7468 12.4573C13.3136 13.3587 12.4964 16.5208 12.4636 16.6522C12.4184 16.837 12.4266 17.028 12.4841 17.2066C18.9644 37.3129 32.4322 41.0397 36.8592 42.2655C37.2001 42.36 37.4814 42.4359 37.6949 42.5058C37.7976 42.5407 37.9044 42.555 38.0111 42.555C38.1569 42.555 38.3027 42.5242 38.4362 42.4626C38.5717 42.401 41.7708 40.8939 42.5531 35.9782C42.588 35.7647 42.5531 35.5429 42.4545 35.3499C42.3847 35.2144 40.7113 32.0297 36.0707 30.9044C35.7463 30.8202 35.4137 30.9065 35.1632 31.12C33.6991 32.3705 31.6766 33.7031 30.8039 33.8407C24.954 30.9804 21.6871 25.4918 21.5639 24.4508C21.4921 23.8656 22.8329 21.8102 24.3749 20.1388C24.57 19.9273 24.6686 19.6398 24.6419 19.3524Z" fill="black"/>
<mask id="mask0_2566_44659" style="mask-type:luminance" maskUnits="userSpaceOnUse" x="12" y="12" width="31" height="31">
<path d="M24.6419 19.3524C24.2497 14.8412 19.5434 12.6277 19.3443 12.5374C19.1574 12.4491 18.948 12.4224 18.7468 12.4573C13.3136 13.3587 12.4964 16.5208 12.4636 16.6522C12.4184 16.837 12.4266 17.028 12.4841 17.2066C18.9644 37.3129 32.4322 41.0397 36.8592 42.2655C37.2001 42.36 37.4814 42.4359 37.6949 42.5058C37.7976 42.5407 37.9044 42.555 38.0111 42.555C38.1569 42.555 38.3027 42.5242 38.4362 42.4626C38.5717 42.401 41.7708 40.8939 42.5531 35.9782C42.588 35.7647 42.5531 35.5429 42.4545 35.3499C42.3847 35.2144 40.7113 32.0297 36.0707 30.9044C35.7463 30.8202 35.4137 30.9065 35.1632 31.12C33.6991 32.3705 31.6766 33.7031 30.8039 33.8407C24.954 30.9804 21.6871 25.4918 21.5639 24.4508C21.4921 23.8656 22.8329 21.8102 24.3749 20.1388C24.57 19.9273 24.6686 19.6398 24.6419 19.3524Z" fill="white"/>
</mask>
<g mask="url(#mask0_2566_44659)">
<rect x="8.25" y="8.25" width="38.5" height="38.5" fill="white"/>
</g>
</svg>
