<svg width="16" height="16" viewBox="0 0 16 16" fill="none" xmlns="http://www.w3.org/2000/svg">
<path d="M8.00008 14.6666C11.6819 14.6666 14.6667 11.6818 14.6667 7.99992C14.6667 4.31802 11.6819 1.33325 8.00008 1.33325C5.01496 1.33325 2.51625 3.29518 1.66675 5.99992H3.33341" stroke="#94A3B8" stroke-linecap="round" stroke-linejoin="round"/>
<path d="M8 5.33325V7.99992L9.33333 9.33325" stroke="#94A3B8" stroke-linecap="round" stroke-linejoin="round"/>
<path d="M1.33325 8C1.33325 8.22487 1.34339 8.44727 1.36321 8.66667M5.99992 14.6667C5.77219 14.5917 5.54973 14.5043 5.33325 14.4052M2.13951 11.3333C2.01095 11.0856 1.89627 10.8289 1.79657 10.5641M3.22073 12.871C3.42452 13.0905 3.64196 13.2961 3.87162 13.4861" stroke="#94A3B8" stroke-linecap="round" stroke-linejoin="round"/>
</svg>
